<svg width="16" height="14" viewBox="0 0 16 14" fill="none" xmlns="http://www.w3.org/2000/svg">
<path d="M13.2066 8.37493C13.4822 8.37493 13.7326 8.19959 13.8078 7.92405L14.9851 2.71391C15.0602 2.33817 14.7847 1.96244 14.3839 1.96244H4.56479L4.33935 0.860296C4.2642 0.584759 4.01372 0.35932 3.73818 0.35932H1.1832C0.832519 0.35932 0.582031 0.634857 0.582031 0.960491V1.36127C0.582031 1.71195 0.832519 1.96244 1.1832 1.96244H2.91157L4.69003 10.5792C4.23915 10.8297 3.93857 11.3056 3.98867 11.8818C4.01372 12.5831 4.58984 13.1593 5.31625 13.1843C6.11781 13.2344 6.79413 12.5831 6.79413 11.7816C6.79413 11.4058 6.61879 11.0552 6.3683 10.7796H11.6035C11.353 11.0552 11.1777 11.4309 11.2027 11.8317C11.2027 12.5831 11.8289 13.1843 12.5804 13.1843C13.3569 13.2093 14.0082 12.5831 14.0082 11.7816C14.0082 11.2305 13.6825 10.7546 13.2066 10.5291L13.3319 9.92796C13.4321 9.55223 13.1315 9.17649 12.7557 9.17649H6.04267L5.86733 8.37493H13.2066ZM10.6767 5.16869C10.9272 5.16869 11.0775 5.49432 10.8771 5.69471L9.19881 7.37298C9.07357 7.49822 8.89823 7.49822 8.77298 7.37298L7.09472 5.69471C6.89433 5.49432 7.04462 5.16869 7.29511 5.16869H8.39725V3.66576C8.39725 3.51547 8.5225 3.36517 8.69784 3.36517H9.29901C9.4493 3.36517 9.59959 3.51547 9.59959 3.66576V5.16869H10.6767Z" fill="white"/>
</svg>
