<svg width="17" height="13" viewBox="0 0 17 13" fill="none" xmlns="http://www.w3.org/2000/svg">
<path d="M9.50527 1.75635C5.73241 2.79087 2.96025 4.74403 1.24506 7.49539C-0.47013 10.2467 1.1787 12.0402 3.93211 11.808C6.68552 11.5758 11.2966 10.0166 14.05 7.95987C16.8035 5.90311 16.6707 4.44345 16.2063 3.3819C15.7419 2.32034 13.6188 0.628422 9.50527 1.75635Z" fill="#FAB13D"/>
<path fill-rule="evenodd" clip-rule="evenodd" d="M0.908909 7.28593C2.68586 4.4355 5.54946 2.43047 9.40035 1.37455C13.6429 0.21124 16.0027 1.92951 16.5687 3.22319C16.8245 3.80792 17.0047 4.54408 16.7099 5.42342C16.421 6.28567 15.6953 7.22472 14.2867 8.27695C12.8692 9.33577 10.9902 10.2557 9.12725 10.9397C7.26475 11.6234 5.38776 12.0824 3.96513 12.2024C2.51534 12.3247 1.24527 11.9226 0.589878 10.9997C-0.0811726 10.0546 0.0063084 8.73381 0.908909 7.28593ZM1.24482 7.49534C2.96 4.74398 5.73217 2.79082 9.50503 1.7563C13.6186 0.628367 15.7416 2.32029 16.2061 3.38184C16.6705 4.4434 16.8032 5.90306 14.0498 7.95982C11.2964 10.0166 6.68528 11.5757 3.93187 11.808C1.17846 12.0402 -0.47037 10.2467 1.24482 7.49534Z" fill="#B7690D"/>
<path d="M4.20544 4.91914C2.65556 5.86762 1.67072 7.09685 1.2605 8.54581C0.85028 9.99477 1.81742 10.5822 3.01597 10.1233C4.21453 9.66432 4.4912 8.25932 5.4543 6.98629C6.4174 5.71326 7.45921 5.23056 7.45921 4.53252C7.45921 3.99389 5.89527 3.88502 4.20544 4.91914Z" fill="#FCC66F"/>
<path fill-rule="evenodd" clip-rule="evenodd" d="M3.62072 6.32714C3.78271 6.47394 3.79502 6.72427 3.64822 6.88626C3.05082 7.54546 2.79449 8.11259 2.59682 8.54993C2.57272 8.60326 2.54949 8.65466 2.52662 8.70406C2.43477 8.90245 2.1995 8.98881 2.00111 8.89697C1.80273 8.80512 1.71636 8.56985 1.80821 8.37146C1.8295 8.32547 1.85174 8.27614 1.87538 8.22368C2.07592 7.77873 2.3776 7.1094 3.06161 6.35464C3.20841 6.19265 3.45873 6.18034 3.62072 6.32714Z" fill="#FFDFAD"/>
<path fill-rule="evenodd" clip-rule="evenodd" d="M2.51953 11.733C5.55842 11.1225 9.54319 9.59819 12.097 7.69054C15.172 5.39355 15.0238 3.76341 14.5051 2.57787C14.3719 2.27355 14.1168 1.92286 13.7333 1.59094C15.1378 1.96658 15.9417 2.77669 16.2065 3.3819C16.6709 4.44346 16.8036 5.90312 14.0502 7.95988C11.2968 10.0166 6.68567 11.5758 3.93226 11.808C3.41789 11.8514 2.94207 11.8241 2.51953 11.733Z" fill="#EDA024"/>
<path d="M6.58633 8.09252C5.84324 6.63288 3.64494 5.86989 2.63867 5.67084C3.01022 5.06045 3.76657 4.554 4.09831 4.37708C5.71718 5.38555 6.43152 7.27423 6.58633 8.09252Z" fill="#D08814"/>
<path d="M9.9279 6.77688C9.0601 4.80189 7.059 3.26534 6.05273 3.0663C6.6961 2.52767 7.95034 2.24077 8.28208 2.06384C10.1374 3.0663 9.77309 5.9586 9.9279 6.77688Z" fill="#A56112"/>
<path d="M13.1894 4.50259C12.3814 2.48272 11.3976 2.05885 10.5311 1.50978C10.9899 1.31568 12.1727 1.36084 12.546 1.31568C13.324 2.39294 13.324 3.26075 13.1894 4.50259Z" fill="#9C5807"/>
<path fill-rule="evenodd" clip-rule="evenodd" d="M3.94394 4.39353C3.96699 4.28668 4.07229 4.21875 4.17914 4.24179C4.61786 4.33642 5.17474 4.69333 5.68568 5.28926C6.20114 5.89046 6.68255 6.74884 6.96277 7.87356C6.9892 7.97962 6.92464 8.08703 6.81857 8.11345C6.71251 8.13988 6.60511 8.07532 6.57868 7.96926C6.31279 6.90204 5.85908 6.09964 5.38517 5.5469C4.90674 4.98888 4.42002 4.69869 4.09568 4.62873C3.98883 4.60568 3.9209 4.50038 3.94394 4.39353Z" fill="#FFDFAC"/>
<path fill-rule="evenodd" clip-rule="evenodd" d="M8.38859 2.02615C8.45069 1.93621 8.57396 1.91364 8.6639 1.97574C9.02364 2.22413 9.43516 2.78856 9.75581 3.57302C10.0797 4.36541 10.3204 5.40451 10.3204 6.62722C10.3204 6.73652 10.2318 6.82513 10.1225 6.82513C10.0132 6.82513 9.92455 6.73652 9.92455 6.62722C9.92455 5.45599 9.69391 4.46775 9.38941 3.72279C9.08166 2.9699 8.70767 2.48698 8.439 2.30147C8.34905 2.23937 8.32648 2.1161 8.38859 2.02615Z" fill="#FFDFAC"/>
<path fill-rule="evenodd" clip-rule="evenodd" d="M12.543 1.28726C12.6124 1.2028 12.7371 1.19057 12.8216 1.25995C13.1817 1.55576 13.4365 2.05848 13.5729 2.62326C13.7103 3.19271 13.7337 3.85013 13.6083 4.48128C13.587 4.58849 13.4828 4.65812 13.3756 4.63681C13.2684 4.61551 13.1987 4.51132 13.22 4.40411C13.334 3.83082 13.3125 3.23143 13.1881 2.71614C13.0626 2.19617 12.8386 1.7862 12.5703 1.56582C12.4859 1.49644 12.4737 1.37173 12.543 1.28726Z" fill="#FFDFAC"/>
<path d="M13.1402 7.08518C13.0894 7.29266 12.924 7.43044 12.7709 7.39291C12.6178 7.35538 12.5348 7.15677 12.5857 6.94929C12.6365 6.7418 12.8019 6.60403 12.955 6.64156C13.1082 6.67908 13.1911 6.8777 13.1402 7.08518Z" fill="#D48A15"/>
<path d="M11.7702 7.60636C11.7289 7.77491 11.5946 7.88682 11.4702 7.85634C11.3458 7.82586 11.2784 7.66451 11.3197 7.49597C11.361 7.32743 11.4954 7.21551 11.6198 7.24599C11.7442 7.27648 11.8115 7.43782 11.7702 7.60636Z" fill="#D48A15"/>
<path d="M12.7507 8.11503C12.7094 8.28357 12.5751 8.39549 12.4507 8.36501C12.3263 8.33452 12.2589 8.17318 12.3002 8.00464C12.3415 7.83609 12.4758 7.72418 12.6002 7.75466C12.7246 7.78514 12.792 7.94649 12.7507 8.11503Z" fill="#D48A15"/>
<path d="M12.4011 6.23039C12.3598 6.39893 12.2255 6.51085 12.1011 6.48036C11.9767 6.44988 11.9093 6.28854 11.9506 6.11999C11.9919 5.95145 12.1262 5.83953 12.2506 5.87002C12.375 5.9005 12.4424 6.06184 12.4011 6.23039Z" fill="#D48A15"/>
<path d="M14.1052 6.66093C14.0639 6.82947 13.9296 6.94139 13.8052 6.9109C13.6808 6.88042 13.6134 6.71908 13.6547 6.55053C13.696 6.38199 13.8303 6.27007 13.9547 6.30056C14.0791 6.33104 14.1465 6.49239 14.1052 6.66093Z" fill="#D48A15"/>
<path d="M13.6219 5.9712C13.5754 6.16126 13.4239 6.28747 13.2836 6.25309C13.1433 6.21872 13.0673 6.03677 13.1139 5.84671C13.1605 5.65664 13.312 5.53043 13.4522 5.56481C13.5925 5.59919 13.6685 5.78113 13.6219 5.9712Z" fill="#D48A15"/>
<path d="M15.1483 6.08106C15.1017 6.27112 14.9502 6.39733 14.81 6.36295C14.6697 6.32858 14.5937 6.14663 14.6403 5.95657C14.6869 5.7665 14.8383 5.64029 14.9786 5.67467C15.1189 5.70905 15.1949 5.89099 15.1483 6.08106Z" fill="#D48A15"/>
<path d="M14.7713 5.26831C14.7248 5.45838 14.5733 5.58459 14.433 5.55021C14.2927 5.51583 14.2167 5.33389 14.2633 5.14382C14.3099 4.95376 14.4614 4.82755 14.6017 4.86193C14.742 4.8963 14.8179 5.07825 14.7713 5.26831Z" fill="#D48A15"/>
<path d="M16.0887 5.13928C16.0421 5.32935 15.8907 5.45556 15.7504 5.42118C15.6101 5.3868 15.5341 5.20486 15.5807 5.01479C15.6273 4.82473 15.7788 4.69852 15.919 4.7329C16.0593 4.76728 16.1353 4.94922 16.0887 5.13928Z" fill="#D48A15"/>
<path d="M14.7226 6.91252C14.6921 7.03691 14.593 7.1195 14.5012 7.09701C14.4094 7.07451 14.3596 6.95544 14.3901 6.83105C14.4206 6.70667 14.5197 6.62407 14.6115 6.64657C14.7033 6.66907 14.7531 6.78814 14.7226 6.91252Z" fill="#D48A15"/>
<path d="M13.6894 7.6906C13.6589 7.81498 13.5598 7.89758 13.468 7.87508C13.3762 7.85258 13.3264 7.73351 13.3569 7.60913C13.3874 7.48474 13.4865 7.40215 13.5783 7.42465C13.6701 7.44714 13.7199 7.56622 13.6894 7.6906Z" fill="#D48A15"/>
<path d="M10.8544 9.20915C10.8239 9.33354 10.7248 9.41613 10.633 9.39364C10.5412 9.37114 10.4915 9.25207 10.522 9.12768C10.5524 9.0033 10.6516 8.9207 10.7434 8.9432C10.8352 8.9657 10.8849 9.08477 10.8544 9.20915Z" fill="#D48A15"/>
<path d="M11.9306 8.46099C11.9001 8.58537 11.801 8.66797 11.7092 8.64547C11.6174 8.62297 11.5677 8.5039 11.5981 8.37951C11.6286 8.25513 11.7277 8.17253 11.8196 8.19503C11.9114 8.21753 11.9611 8.3366 11.9306 8.46099Z" fill="#D48A15"/>
<path d="M11.1356 8.30921C11.1108 8.41036 11.0302 8.47752 10.9556 8.45923C10.8809 8.44094 10.8405 8.34411 10.8653 8.24296C10.8901 8.14181 10.9707 8.07465 11.0453 8.09294C11.12 8.11123 11.1604 8.20806 11.1356 8.30921Z" fill="#D48A15"/>
<path d="M11.4882 6.76079C11.4577 6.88517 11.3586 6.96777 11.2668 6.94527C11.175 6.92277 11.1253 6.8037 11.1557 6.67932C11.1862 6.55493 11.2854 6.47234 11.3772 6.49484C11.469 6.51733 11.5187 6.6364 11.4882 6.76079Z" fill="#D48A15"/>
<path d="M13.0292 5.46868C12.9987 5.59306 12.8996 5.67566 12.8078 5.65316C12.716 5.63066 12.6663 5.51159 12.6968 5.38721C12.7272 5.26282 12.8264 5.18023 12.9182 5.20272C13.01 5.22522 13.0597 5.34429 13.0292 5.46868Z" fill="#D48A15"/>
<path d="M14.0458 4.64543C14.0153 4.76982 13.9162 4.85241 13.8244 4.82992C13.7326 4.80742 13.6829 4.68835 13.7134 4.56396C13.7438 4.43958 13.843 4.35698 13.9348 4.37948C14.0266 4.40198 14.0763 4.52105 14.0458 4.64543Z" fill="#D48A15"/>
<path d="M15.1767 4.44548C15.1462 4.56987 15.0471 4.65246 14.9553 4.62996C14.8635 4.60747 14.8137 4.48839 14.8442 4.36401C14.8747 4.23963 14.9738 4.15703 15.0656 4.17953C15.1575 4.20203 15.2072 4.3211 15.1767 4.44548Z" fill="#D48A15"/>
<path d="M15.8896 4.36394C15.8591 4.48832 15.76 4.57092 15.6682 4.54842C15.5764 4.52592 15.5266 4.40685 15.5571 4.28247C15.5876 4.15808 15.6867 4.07549 15.7785 4.09799C15.8703 4.12048 15.9201 4.23955 15.8896 4.36394Z" fill="#D48A15"/>
</svg>
